<?xml version="1.0" encoding="UTF-8" standalone="no"?>
<!DOCTYPE svg PUBLIC "-//W3C//DTD SVG 1.1//EN" "http://www.w3.org/Graphics/SVG/1.1/DTD/svg11.dtd">
<svg width="100%" height="100%" viewBox="0 0 500 500" version="1.1" xmlns="http://www.w3.org/2000/svg" xmlnsXlink="http://www.w3.org/1999/xlink" xmlSpace="preserve" xmlnsSerif="http://www.serif.com/" style="fill-rule:evenodd;clip-rule:evenodd;stroke-linejoin:round;stroke-miterlimit:2;">
    <g transform="matrix(4.27059,0,0,4.27059,159.479,370.954)">
        <path d="M0,-8.744C0,-8.744 -4.959,0 -1.151,-0.028C2.657,-0.056 0,-8.744 0,-8.744" style="fill:white;fill-rule:nonzero;"/>
    </g>
    <g transform="matrix(4.27059,0,0,4.27059,98.8874,339.117)">
        <path d="M0,-8.744C0,-8.744 -4.959,0 -1.151,-0.028C2.657,-0.056 0,-8.744 0,-8.744" style="fill:white;fill-rule:nonzero;"/>
    </g>
    <g transform="matrix(4.27059,0,0,4.27059,220.661,354.967)">
        <path d="M0,-8.744C0,-8.744 -4.959,0 -1.151,-0.028C2.657,-0.056 0,-8.744 0,-8.744" style="fill:white;fill-rule:nonzero;"/>
    </g>
    <g transform="matrix(4.27059,0,0,4.27059,352.382,339.848)">
        <path d="M0,-8.744C0,-8.744 -4.959,0 -1.151,-0.028C2.657,-0.056 0,-8.744 0,-8.744" style="fill:white;fill-rule:nonzero;"/>
    </g>
    <g transform="matrix(4.27059,0,0,4.27059,251.054,411.542)">
        <path d="M0,-8.744C0,-8.744 -4.959,0 -1.151,-0.028C2.657,-0.056 0,-8.744 0,-8.744" style="fill:white;fill-rule:nonzero;"/>
    </g>
    <g transform="matrix(4.27059,0,0,4.27059,228.68,480.621)">
        <path d="M0,-8.744C0,-8.744 -4.959,0 -1.151,-0.028C2.657,-0.056 0,-8.744 0,-8.744" style="fill:white;fill-rule:nonzero;"/>
    </g>
    <g transform="matrix(4.27059,0,0,4.27059,336.694,493.952)">
        <path d="M0,-8.744C0,-8.744 -4.959,0 -1.151,-0.028C2.657,-0.056 0,-8.744 0,-8.744" style="fill:white;fill-rule:nonzero;"/>
    </g>
    <g transform="matrix(4.27059,0,0,4.27059,189.873,427.529)">
        <path d="M0,-8.744C0,-8.744 -4.959,0 -1.151,-0.028C2.657,-0.056 0,-8.744 0,-8.744" style="fill:white;fill-rule:nonzero;"/>
    </g>
    <g transform="matrix(4.27059,0,0,4.27059,169.727,499.233)">
        <path d="M0,-8.744C0,-8.744 -4.959,0 -1.151,-0.028C2.657,-0.056 0,-8.744 0,-8.744" style="fill:white;fill-rule:nonzero;"/>
    </g>
    <g transform="matrix(4.27059,0,0,4.27059,118.064,432.623)">
        <path d="M0,-8.744C0,-8.744 -4.959,0 -1.151,-0.028C2.657,-0.056 0,-8.744 0,-8.744" style="fill:white;fill-rule:nonzero;"/>
    </g>
    <g transform="matrix(4.27059,0,0,4.27059,288.824,354.61)">
        <path d="M0,-8.744C0,-8.744 -4.959,0 -1.151,-0.028C2.657,-0.056 0,-8.744 0,-8.744" style="fill:white;fill-rule:nonzero;"/>
    </g>
    <g transform="matrix(4.27059,0,0,4.27059,278.82,493.952)">
        <path d="M0,-8.744C0,-8.744 -4.959,0 -1.151,-0.028C2.657,-0.056 0,-8.744 0,-8.744" style="fill:white;fill-rule:nonzero;"/>
    </g>
    <g transform="matrix(4.27059,0,0,4.27059,314.332,419.496)">
        <path d="M0,-8.744C0,-8.744 -4.959,0 -1.151,-0.028C2.657,-0.056 0,-8.744 0,-8.744" style="fill:white;fill-rule:nonzero;"/>
    </g>
    <g transform="matrix(4.27059,0,0,4.27059,413.997,336.355)">
        <path d="M0,-8.744C0,-8.744 -4.959,0 -1.151,-0.028C2.657,-0.056 0,-8.744 0,-8.744" style="fill:white;fill-rule:nonzero;"/>
    </g>
    <g transform="matrix(4.27059,0,0,4.27059,376.12,419.496)">
        <path d="M0,-8.744C0,-8.744 -4.959,0 -1.151,-0.028C2.657,-0.056 0,-8.744 0,-8.744" style="fill:white;fill-rule:nonzero;"/>
    </g>
    <g transform="matrix(4.27059,0,0,4.27059,251.054,476.523)">
        <path d="M0,-58.338C-0.452,-56.91 -12.012,-24.727 -12.012,-24.727L1.324,-25.379L-9.333,0L22.273,-33.863L5.454,-34.08L20.989,-55.87" style="fill:rgb(253,211,0);fill-rule:nonzero;"/>
    </g>
    <g transform="matrix(4.27059,0,0,4.27059,233.278,-5.39463)">
        <path d="M0,71.128C0,71.128 37.749,72.469 54.894,58.146C72.039,43.823 56.025,34.468 46.183,39.177C46.183,39.177 53.588,26.539 43.168,21.459C32.747,16.38 25.294,28.201 25.294,28.201C25.294,28.201 29.528,4.709 8.547,1.684C-12.435,-1.341 -19.929,28.829 -19.929,28.829C-19.929,28.829 -42.941,14.059 -52.761,34.58C-62.936,55.846 -29.476,71.833 0,71.128" style="fill:rgb(197,205,207);fill-rule:nonzero;"/>
    </g>
    <g transform="matrix(4.2065,-0.737054,-0.737054,-4.2065,324.266,107.868)">
        <path d="M-1.375,-0.198C-1.03,6.869 -3.478,12.508 -3.864,14.462C-4.233,16.323 -2.013,16.305 -1.375,15.197C0.932,11.19 1.166,2.672 -0.206,-0.302C-0.465,-0.861 -1.285,-0.751 -1.375,-0.198" style="fill:white;fill-rule:nonzero;"/>
    </g>
    <g transform="matrix(4.27059,0,0,4.27059,289.405,13.0125)">
        <path d="M0,5.198C-0.843,5.114 -4.076,2.593 -4.425,1.702C-4.659,1.107 -4.311,0.162 -3.529,0.092C-2.242,-0.024 -1.159,0.97 -0.448,1.917C0.075,2.613 0.975,3.907 0.571,4.832C0.478,5.046 0.24,5.222 0,5.198" style="fill:white;fill-rule:nonzero;"/>
    </g>
    <g transform="matrix(4.27059,0,0,4.27059,448.804,218.439)">
        <path d="M0,1.066C0,1.066 -18.671,12.254 -50.063,13.007C-81.455,13.759 -97.713,-4.764 -100.018,-8.498C-97.885,-11.466 -92.73,-12.693 -89.268,-11.927C-85.805,-11.161 -82.924,-9.025 -80.2,-6.884C-77.476,-4.743 -74.717,-2.502 -71.347,-1.461C-62.624,1.233 -52.687,-4.776 -43.643,-3.104C-38.53,-2.158 -34.145,1.191 -28.905,1.435C-23.789,1.673 -18.903,-1.072 -13.894,-2.533C-8.886,-3.993 -2.095,-3.401 0,1.066" style="fill:rgb(183,191,192);fill-rule:nonzero;"/>
    </g>
</svg>
