<?xml version="1.0" encoding="UTF-8" standalone="no"?>
<!DOCTYPE svg PUBLIC "-//W3C//DTD SVG 1.1//EN" "http://www.w3.org/Graphics/SVG/1.1/DTD/svg11.dtd">
<svg width="100%" height="100%" viewBox="0 0 500 500" version="1.1" xmlns="http://www.w3.org/2000/svg" xmlnsXlink="http://www.w3.org/1999/xlink" xmlSpace="preserve" xmlnsSerif="http://www.serif.com/" style="fill-rule:evenodd;clip-rule:evenodd;stroke-linejoin:round;stroke-miterlimit:2;">
    <g transform="matrix(5.01555,0,0,5.01555,-171.402,-744.55)">
        <g>
            <g>
                <g>
                    <path d="M114.465,180.799C116.892,178.08 121.817,175.084 123.398,174.215C125.907,172.748 127.699,176.396 125.252,177.777C122.134,179.667 117.038,181.695 115.214,182.197C114.531,182.238 114.077,181.355 114.465,180.799Z" style="fill:rgb(242,210,49);fill-rule:nonzero;"/>
                </g>
            </g>
            <g>
                <g>
                    <path d="M53.034,215.312C50.607,218.031 45.682,221.027 44.101,221.896C41.592,223.363 39.8,219.715 42.247,218.334C45.365,216.444 50.461,214.416 52.285,213.914C52.968,213.872 53.421,214.756 53.034,215.312Z" style="fill:rgb(242,210,49);fill-rule:nonzero;"/>
                </g>
            </g>
            <g>
                <g>
                    <path d="M102.605,167.93C103.458,164.36 106.373,159.328 107.353,157.794C108.866,155.283 112.154,157.612 110.655,160.017C108.806,163.196 105.285,167.461 103.92,168.791C103.34,169.162 102.526,168.607 102.605,167.93Z" style="fill:rgb(242,210,49);fill-rule:nonzero;"/>
                </g>
            </g>
            <g>
                <g>
                    <path d="M64.894,228.181C64.041,231.751 61.126,236.783 60.146,238.317C58.633,240.828 55.345,238.499 56.844,236.094C58.693,232.915 62.214,228.65 63.579,227.32C64.159,226.949 64.973,227.504 64.894,228.181Z" style="fill:rgb(242,210,49);fill-rule:nonzero;"/>
                </g>
            </g>
            <g>
                <g>
                    <path d="M86.298,162.425C85.384,158.87 85.604,153.032 85.751,151.208C85.911,148.266 89.892,148.726 89.693,151.568C89.548,155.26 88.438,160.716 87.856,162.547C87.519,163.153 86.544,163.059 86.298,162.425Z" style="fill:rgb(242,210,49);fill-rule:nonzero;"/>
                </g>
            </g>
            <g>
                <g>
                    <path d="M81.201,233.686C82.115,237.241 81.895,243.079 81.748,244.902C81.588,247.844 77.608,247.384 77.806,244.542C77.951,240.85 79.061,235.394 79.643,233.563C79.98,232.957 80.954,233.052 81.201,233.686Z" style="fill:rgb(242,210,49);fill-rule:nonzero;"/>
                </g>
            </g>
            <g>
                <g>
                    <path d="M67.862,166.205C65.276,163.642 62.504,158.527 61.705,156.888C60.351,154.284 63.992,152.585 65.264,155.123C67.012,158.361 68.829,163.617 69.259,165.49C69.276,166.186 68.394,166.618 67.862,166.205Z" style="fill:rgb(242,210,49);fill-rule:nonzero;"/>
                </g>
            </g>
            <g>
                <g>
                    <path d="M99.637,229.906C102.223,232.469 104.995,237.584 105.794,239.223C107.148,241.826 103.507,243.526 102.235,240.988C100.487,237.75 98.67,232.494 98.24,230.621C98.222,229.925 99.104,229.493 99.637,229.906Z" style="fill:rgb(242,210,49);fill-rule:nonzero;"/>
                </g>
            </g>
            <g>
                <g>
                    <path d="M53.813,179.434C50.291,178.634 45.296,175.762 43.771,174.794C41.277,173.302 43.5,169.909 45.89,171.389C49.047,173.211 53.301,176.714 54.633,178.079C55.007,178.662 54.479,179.501 53.813,179.434Z" style="fill:rgb(242,210,49);fill-rule:nonzero;"/>
                </g>
            </g>
            <g>
                <g>
                    <path d="M113.686,216.677C117.208,217.477 122.203,220.349 123.728,221.317C126.222,222.809 123.999,226.202 121.609,224.722C118.452,222.9 114.198,219.397 112.866,218.032C112.491,217.448 113.02,216.61 113.686,216.677Z" style="fill:rgb(242,210,49);fill-rule:nonzero;"/>
                </g>
            </g>
            <g>
                <g>
                    <path d="M49.061,197.43C45.669,198.683 39.941,198.996 38.144,199.014C35.253,199.121 35.337,195.043 38.134,194.983C41.757,194.791 47.194,195.416 49.037,195.838C49.661,196.125 49.658,197.121 49.061,197.43Z" style="fill:rgb(242,210,49);fill-rule:nonzero;"/>
                </g>
            </g>
            <g>
                <g>
                    <path d="M118.822,197.37C122.214,196.117 127.942,195.804 129.739,195.786C132.63,195.679 132.546,199.757 129.749,199.817C126.126,200.009 120.689,199.384 118.845,198.962C118.221,198.675 118.225,197.678 118.822,197.37Z" style="fill:rgb(242,210,49);fill-rule:nonzero;"/>
                </g>
            </g>
        </g>
        <g>
            <g>
                <g>
                    <path d="M108.805,173.053C110.428,169.771 114.386,165.542 115.681,164.273C117.712,162.175 120.398,165.201 118.404,167.199C115.897,169.87 111.52,173.213 109.895,174.195C109.248,174.422 108.579,173.694 108.805,173.053Z" style="fill:rgb(242,210,49);fill-rule:nonzero;"/>
                </g>
            </g>
            <g>
                <g>
                    <path d="M58.693,223.058C57.069,226.339 53.112,230.569 51.817,231.838C49.786,233.936 47.1,230.91 49.094,228.912C51.601,226.241 55.978,222.897 57.603,221.916C58.251,221.689 58.92,222.417 58.693,223.058Z" style="fill:rgb(242,210,49);fill-rule:nonzero;"/>
                </g>
            </g>
            <g>
                <g>
                    <path d="M93.995,163.888C93.878,160.215 95.364,154.573 95.904,152.827C96.701,149.995 100.482,151.342 99.67,154.069C98.724,157.636 96.454,162.706 95.488,164.359C95.027,164.874 94.098,164.562 93.995,163.888Z" style="fill:rgb(242,210,49);fill-rule:nonzero;"/>
                </g>
            </g>
            <g>
                <g>
                    <path d="M73.504,232.223C73.621,235.896 72.135,241.539 71.594,243.284C70.797,246.116 67.016,244.769 67.828,242.042C68.774,238.475 71.044,233.405 72.01,231.752C72.472,231.236 73.401,231.549 73.504,232.223Z" style="fill:rgb(242,210,49);fill-rule:nonzero;"/>
                </g>
            </g>
            <g>
                <g>
                    <path d="M76.836,163.031C75.02,159.855 73.698,154.17 73.359,152.373C72.74,149.495 76.696,148.852 77.252,151.645C78.083,155.242 78.448,160.801 78.369,162.724C78.204,163.4 77.24,163.575 76.836,163.031Z" style="fill:rgb(242,210,49);fill-rule:nonzero;"/>
                </g>
            </g>
            <g>
                <g>
                    <path d="M90.663,233.08C92.479,236.256 93.801,241.94 94.14,243.738C94.759,246.616 90.803,247.259 90.247,244.466C89.416,240.869 89.051,235.31 89.13,233.387C89.295,232.711 90.258,232.536 90.663,233.08Z" style="fill:rgb(242,210,49);fill-rule:nonzero;"/>
                </g>
            </g>
            <g>
                <g>
                    <path d="M60.067,171.701C56.902,169.937 52.886,165.765 51.685,164.403C49.695,162.264 52.757,159.633 54.65,161.732C57.186,164.375 60.318,168.943 61.225,170.631C61.425,171.297 60.689,171.953 60.067,171.701Z" style="fill:rgb(242,210,49);fill-rule:nonzero;"/>
                </g>
            </g>
            <g>
                <g>
                    <path d="M107.432,224.41C110.597,226.174 114.613,230.346 115.814,231.708C117.804,233.847 114.742,236.478 112.85,234.38C110.314,231.737 107.182,227.169 106.275,225.481C106.073,224.814 106.81,224.158 107.432,224.41Z" style="fill:rgb(242,210,49);fill-rule:nonzero;"/>
                </g>
            </g>
            <g>
                <g>
                    <path d="M50.01,188.279C46.407,188.469 40.838,187.064 39.114,186.547C36.318,185.79 37.568,181.914 40.261,182.689C43.781,183.583 48.801,185.798 50.444,186.75C50.958,187.209 50.669,188.161 50.01,188.279Z" style="fill:rgb(242,210,49);fill-rule:nonzero;"/>
                </g>
            </g>
            <g>
                <g>
                    <path d="M117.489,207.832C121.092,207.642 126.661,209.047 128.385,209.564C131.181,210.321 129.931,214.197 127.238,213.422C123.717,212.528 118.697,210.313 117.055,209.361C116.541,208.902 116.83,207.95 117.489,207.832Z" style="fill:rgb(242,210,49);fill-rule:nonzero;"/>
                </g>
            </g>
            <g>
                <g>
                    <path d="M50.076,206.335C47.138,208.468 41.701,210.331 39.974,210.839C37.217,211.731 36.225,207.778 38.905,206.958C42.346,205.785 47.748,204.905 49.635,204.808C50.312,204.913 50.571,205.874 50.076,206.335Z" style="fill:rgb(242,210,49);fill-rule:nonzero;"/>
                </g>
            </g>
            <g>
                <g>
                    <path d="M117.361,187.83C120.299,185.697 125.736,183.834 127.463,183.326C130.22,182.434 131.212,186.387 128.532,187.207C125.091,188.38 119.689,189.26 117.802,189.357C117.125,189.251 116.866,188.29 117.361,187.83Z" style="fill:rgb(242,210,49);fill-rule:nonzero;"/>
                </g>
            </g>
        </g>
        <path d="M55.164,203.889C58.233,219.629 74.18,229.668 90.782,226.31C107.384,222.952 118.354,207.47 115.285,191.73C112.216,175.99 96.269,165.951 79.667,169.309C63.065,172.667 52.095,188.149 55.164,203.889Z" style="fill:rgb(242,210,49);fill-rule:nonzero;"/>
        <g>
            <path d="M74.301,175.182C68.47,178.868 65.149,184.014 63.772,185.424C62.461,186.766 61.39,184.958 61.967,183.819C64.049,179.704 70.759,174.734 73.813,174.178C74.386,174.074 74.699,174.799 74.301,175.182Z" style="fill:white;fill-rule:nonzero;"/>
        </g>
        <g>
            <path d="M61.41,188.507C61.626,189.295 60.534,193.229 59.875,193.909C59.435,194.364 58.491,194.442 58.161,193.772C57.618,192.668 58.114,191.29 58.697,190.262C59.125,189.508 59.947,188.168 60.894,188.147C61.112,188.143 61.348,188.282 61.41,188.507Z" style="fill:white;fill-rule:nonzero;"/>
        </g>
        <path d="M111.21,186.924C111.21,186.924 116.91,199.546 108.731,212.005C100.551,224.464 83.121,228.197 68.65,219.903C69.287,216.345 73.06,213.502 76.609,213.585C79.394,213.65 82.643,215.135 84.669,213.188C86.031,211.88 85.984,209.683 86.789,207.962C88.143,205.067 91.585,203.999 94.649,203.262C97.713,202.525 101.155,201.536 102.61,198.693C103.387,197.174 103.433,195.392 103.469,193.68C103.506,191.968 103.569,190.182 104.375,188.679C105.18,187.176 109.535,186.533 111.118,187.108L111.21,186.924Z" style="fill:rgb(230,175,41);fill-opacity:0.2;fill-rule:nonzero;"/>
    </g>
</svg>
