<?xml version="1.0" encoding="UTF-8" standalone="no"?>
<!DOCTYPE svg PUBLIC "-//W3C//DTD SVG 1.1//EN" "http://www.w3.org/Graphics/SVG/1.1/DTD/svg11.dtd">
<svg width="100%" height="100%" viewBox="0 0 500 500" version="1.1" xmlns="http://www.w3.org/2000/svg" xmlnsXlink="http://www.w3.org/1999/xlink" xmlSpace="preserve" xmlnsSerif="http://www.serif.com/" style="fill-rule:evenodd;clip-rule:evenodd;stroke-linejoin:round;stroke-miterlimit:2;">
    <g transform="matrix(2.74229,0,0,2.74229,-693.191,-761.255)">
        <g opacity="0.4">
            <g transform="matrix(1,0,0,1,274.83,380.746)">
                <path d="M0,31.312C8.197,26.409 17.433,23.362 26.865,21.91C36.311,20.457 45.926,20.349 55.439,21.068C74.506,22.481 93.124,27.011 112,28.842C116.716,29.307 121.443,29.577 126.166,29.638C130.883,29.664 135.635,29.59 140.225,28.866C144.792,28.132 149.281,26.584 152.758,23.665C154.495,22.213 155.971,20.445 157.013,18.459C158.033,16.472 158.63,14.25 158.518,12.039C158.335,7.643 155.405,3.271 151.195,1.855C147.054,0.415 141.773,2.09 139.562,6.005C137.366,9.856 138.643,15.58 142.626,17.866C146.563,20.119 152.577,18.162 154.11,13.626C154.134,13.554 154.212,13.515 154.284,13.539C154.353,13.563 154.392,13.637 154.372,13.707C153.691,16.071 151.718,17.908 149.451,18.788C147.187,19.682 144.497,19.728 142.252,18.554C140.015,17.389 138.435,15.18 137.795,12.776C137.139,10.374 137.315,7.695 138.521,5.434C139.723,3.177 141.84,1.509 144.199,0.64C146.561,-0.234 149.22,-0.373 151.673,0.4C154.122,1.182 156.219,2.833 157.7,4.88C159.184,6.93 160.099,9.395 160.253,11.948C160.416,14.504 159.767,17.046 158.65,19.295C157.511,21.543 155.904,23.515 154.016,25.142C150.21,28.456 145.325,30.079 140.555,30.874C135.736,31.67 130.925,31.685 126.136,31.619C121.342,31.529 116.562,31.169 111.812,30.636C92.804,28.498 74.286,23.743 55.357,22.092C45.909,21.252 36.361,21.234 26.962,22.553C17.576,23.872 8.367,26.774 0.141,31.547C0.076,31.586 -0.009,31.565 -0.047,31.5C-0.086,31.435 -0.064,31.351 0,31.312" style="fill:white;fill-rule:nonzero;"/>
            </g>
            <g transform="matrix(1,0,0,1,270.795,331.054)">
                <path d="M0,13.663C7.561,9.689 15.96,7.423 24.455,6.592C32.962,5.761 41.555,6.139 50.014,7.25C66.973,9.452 83.371,14.415 100.124,16.978C104.309,17.624 108.513,18.097 112.722,18.386C116.927,18.642 121.17,18.811 125.292,18.398C129.394,17.973 133.457,16.818 136.688,14.407C139.913,12.04 142.328,8.358 142.382,4.398C142.443,0.501 140.066,-3.521 136.417,-4.983C132.831,-6.468 128.062,-5.254 125.907,-1.903C123.767,1.391 124.605,6.538 128.018,8.77C131.39,10.973 136.847,9.549 138.446,5.589C138.474,5.519 138.554,5.485 138.624,5.513C138.692,5.541 138.726,5.617 138.703,5.685C137.98,7.768 136.124,9.318 134.05,9.996C131.98,10.687 129.566,10.6 127.606,9.436C125.654,8.281 124.341,6.221 123.886,4.03C123.415,1.842 123.703,-0.555 124.9,-2.531C126.093,-4.502 128.078,-5.897 130.241,-6.562C132.407,-7.231 134.804,-7.226 136.975,-6.409C139.14,-5.583 140.945,-3.994 142.174,-2.079C143.407,-0.162 144.107,2.099 144.119,4.404C144.138,6.712 143.428,8.966 142.313,10.931C141.178,12.894 139.637,14.586 137.861,15.952C134.28,18.74 129.817,19.947 125.508,20.421C121.155,20.894 116.856,20.662 112.581,20.362C108.302,20.04 104.051,19.475 99.836,18.758C82.969,15.883 66.682,10.7 49.876,8.267C41.488,7.039 32.969,6.539 24.516,7.24C16.075,7.941 7.71,10.063 0.127,13.906C0.06,13.941 -0.023,13.915 -0.058,13.848C-0.092,13.781 -0.066,13.699 0,13.663" style="fill:white;fill-rule:nonzero;"/>
            </g>
            <g transform="matrix(1,0,0,1,280.251,413.12)">
                <path d="M0,8.186C0.666,6.915 1.533,5.74 2.533,4.688C3.545,3.646 4.687,2.733 5.89,1.918C8.304,0.297 10.947,-0.952 13.632,-1.981C19.019,-4.031 24.672,-5.425 30.422,-6.15C41.932,-7.522 53.83,-6.096 64.705,-1.874C75.76,2.248 84.496,10.162 95.375,12.151C98.063,12.704 100.818,13.002 103.585,13.009C106.352,13.001 109.122,12.713 111.854,12.191C117.362,11.257 122.612,9.023 127.413,5.998L127.42,5.993C127.467,5.964 127.528,5.978 127.558,6.025C127.586,6.069 127.574,6.127 127.533,6.158C118.354,12.936 106.34,15.708 95.102,13.679C89.441,12.767 84.177,10.318 79.205,7.59C76.705,6.232 74.239,4.817 71.726,3.498C70.471,2.836 69.198,2.211 67.901,1.639L65.963,0.766L63.984,-0.01C53.422,-4.164 41.863,-5.623 30.573,-4.6C24.926,-4.053 19.344,-2.835 13.981,-0.982C11.29,-0.09 8.657,1.014 6.236,2.484C3.827,3.952 1.635,5.862 0.172,8.289C0.143,8.336 0.082,8.351 0.034,8.323C-0.011,8.295 -0.027,8.238 -0.003,8.191L0,8.186Z" style="fill:white;fill-rule:nonzero;"/>
            </g>
            <g transform="matrix(1,0,0,1,259.479,316.732)">
                <path d="M0,8.186C0.666,6.915 1.533,5.741 2.533,4.688C3.545,3.646 4.687,2.733 5.889,1.918C8.304,0.297 10.947,-0.952 13.632,-1.981C19.019,-4.031 24.672,-5.425 30.422,-6.15C41.932,-7.522 53.83,-6.096 64.705,-1.874C75.76,2.248 84.496,10.162 95.375,12.151C98.063,12.704 100.818,13.002 103.585,13.009C106.352,13.001 109.122,12.713 111.854,12.191C117.362,11.258 122.612,9.023 127.413,5.998L127.42,5.993C127.467,5.964 127.528,5.978 127.558,6.025C127.586,6.069 127.574,6.127 127.533,6.158C118.354,12.936 106.34,15.708 95.102,13.679C89.441,12.767 84.177,10.318 79.205,7.591C76.705,6.232 74.239,4.817 71.726,3.498C70.471,2.836 69.198,2.211 67.901,1.639L65.963,0.766L63.984,-0.01C53.422,-4.164 41.863,-5.623 30.573,-4.599C24.926,-4.053 19.344,-2.835 13.981,-0.982C11.29,-0.09 8.657,1.014 6.236,2.484C3.827,3.952 1.635,5.862 0.172,8.289C0.143,8.336 0.082,8.351 0.034,8.323C-0.011,8.295 -0.027,8.238 -0.003,8.191L0,8.186Z" style="fill:white;fill-rule:nonzero;"/>
            </g>
            <g transform="matrix(1,0,0,1,252.911,381.723)">
                <path d="M0,11.511C11.532,5.719 24.292,2.282 37.241,1.609C43.714,1.238 50.227,1.654 56.635,2.57C63.041,3.515 69.366,4.863 75.638,6.319C81.912,7.759 88.167,9.224 94.475,10.3C97.631,10.8 100.793,11.282 103.97,11.522C105.556,11.691 107.147,11.736 108.736,11.812C110.329,11.89 111.906,11.886 113.444,11.759C114.979,11.622 116.483,11.336 117.862,10.782C119.244,10.237 120.507,9.427 121.472,8.375C122.426,7.329 123.069,6.018 123.229,4.629C123.398,3.255 123.068,1.848 122.221,0.843C121.366,-0.179 120.011,-0.837 118.715,-0.784C118.058,-0.757 117.457,-0.544 116.939,-0.144C116.431,0.265 116.001,0.828 115.769,1.468C115.261,2.725 115.568,4.294 116.747,4.987C117.296,5.327 118.044,5.366 118.447,4.939C118.874,4.514 119.045,3.643 118.523,3.259C118.415,3.182 118.39,3.032 118.467,2.924C118.538,2.824 118.674,2.797 118.779,2.853C119.22,3.095 119.478,3.615 119.48,4.094C119.5,4.578 119.347,5.058 119.031,5.448C118.348,6.304 117.117,6.293 116.286,5.885C115.418,5.493 114.746,4.703 114.437,3.798C114.14,2.885 114.174,1.904 114.457,1.022C114.726,0.131 115.248,-0.674 115.955,-1.316C116.668,-1.953 117.634,-2.364 118.581,-2.452C120.519,-2.656 122.372,-1.765 123.626,-0.381C124.926,1.047 125.395,3.046 125.176,4.85C124.984,6.666 124.167,8.4 122.945,9.721C120.476,12.383 116.914,13.453 113.61,13.706C100.403,14.167 87.745,10.961 75.234,8.058C68.969,6.603 62.722,5.131 56.4,4.129C50.082,3.142 43.691,2.649 37.301,2.93C24.533,3.42 11.814,6.423 0.211,11.942C0.091,11.999 -0.052,11.949 -0.109,11.829C-0.165,11.711 -0.116,11.57 0,11.511" style="fill:white;fill-rule:nonzero;"/>
            </g>
            <g transform="matrix(1,0,0,1,268.596,365.783)">
                <path d="M0,-0.383C13.38,-6.2 27.996,-9.272 42.648,-9.229C49.974,-9.246 57.296,-8.374 64.47,-6.943C71.641,-5.481 78.695,-3.563 85.689,-1.536C92.685,0.476 99.66,2.515 106.722,4.119C110.258,4.879 113.802,5.618 117.38,6.085C119.162,6.374 120.958,6.522 122.751,6.706C124.546,6.892 126.332,6.985 128.085,6.936C129.836,6.875 131.564,6.644 133.171,6.098C134.781,5.562 136.274,4.716 137.446,3.571C138.605,2.431 139.425,0.963 139.694,-0.623C139.973,-2.193 139.68,-3.841 138.757,-5.057C137.829,-6.289 136.307,-7.131 134.798,-7.144C134.035,-7.151 133.319,-6.935 132.697,-6.5C132.084,-6.055 131.557,-5.43 131.253,-4.704C130.591,-3.287 130.861,-1.444 132.193,-0.58C132.809,-0.158 133.684,-0.067 134.185,-0.552C134.706,-1.025 134.947,-2.027 134.356,-2.506C134.251,-2.588 134.233,-2.739 134.316,-2.843C134.392,-2.94 134.531,-2.961 134.633,-2.898C135.104,-2.601 135.354,-2.012 135.325,-1.482C135.315,-0.945 135.113,-0.422 134.741,-0.012C133.937,0.886 132.578,0.798 131.684,0.292C130.746,-0.2 130.053,-1.118 129.769,-2.14C129.497,-3.171 129.596,-4.259 129.966,-5.221C130.321,-6.194 130.954,-7.056 131.777,-7.723C132.608,-8.384 133.699,-8.778 134.755,-8.816C136.913,-8.92 138.92,-7.818 140.227,-6.204C141.578,-4.54 141.979,-2.294 141.627,-0.298C141.302,1.714 140.286,3.594 138.844,4.995C135.928,7.817 131.875,8.805 128.146,8.889C113.24,8.607 99.14,4.22 85.191,0.179C78.205,-1.847 71.235,-3.884 64.151,-5.399C57.071,-6.896 49.875,-7.839 42.636,-7.907C28.176,-8.123 13.624,-5.482 0.187,0.059C0.065,0.11 -0.075,0.052 -0.126,-0.071C-0.176,-0.192 -0.12,-0.331 0,-0.383" style="fill:white;fill-rule:nonzero;"/>
            </g>
        </g>
        <g transform="matrix(1,0,0,1,383.942,385.927)">
            <path d="M0,15.73C0,15.73 6.653,22.419 15.223,18.738C19.03,17.102 18.069,14.739 18.069,14.739C18.069,14.739 17.83,12.697 14.939,12.922C14.939,12.922 22.08,12.095 22.651,8.485C22.758,6.249 20.529,6.614 20.529,6.614C20.529,6.614 28.137,2.963 26.354,-1.863C24.572,-6.689 16.729,0.511 16.729,0.511C16.729,0.511 19.122,-3.531 16.432,-4.559C13.404,-5.719 8.63,1.786 8.63,1.786C8.63,1.786 9.743,-1.95 6.752,-2.45C2.668,-3.133 -3.016,8.628 0,15.73" style="fill:rgb(255,169,99);fill-rule:nonzero;"/>
        </g>
        <g transform="matrix(1,0,0,1,407.732,401.559)">
            <path d="M0,-14.912C0.384,-15.224 0.604,-15.432 0.634,-15.512C0.741,-15.787 0.604,-16.086 0.327,-16.181C0.116,-16.254 -0.112,-16.183 -0.26,-16.029C-1.094,-15.288 -15.561,-3.961 -26.406,0.258C-26.683,0.367 -26.827,0.673 -26.726,0.941C-26.625,1.212 -26.317,1.342 -26.039,1.235C-16.719,-2.391 -3.555,-12.007 0,-14.912" style="fill:rgb(228,137,73);fill-rule:nonzero;"/>
        </g>
        <g transform="matrix(1,0,0,1,387.219,387.102)">
            <path d="M0,13.106C0.137,12.994 0.217,12.821 0.199,12.636C0.191,12.572 -0.413,6.293 2.94,0.696C3.093,0.443 3.009,0.122 2.756,-0.018C2.502,-0.16 2.172,-0.069 2.02,0.186C-1.521,6.096 -0.897,12.507 -0.868,12.777C-0.838,13.065 -0.575,13.266 -0.28,13.227C-0.174,13.213 -0.078,13.17 0,13.106" style="fill:rgb(228,137,73);fill-rule:nonzero;"/>
        </g>
        <g transform="matrix(1,0,0,1,395.668,384.555)">
            <path d="M0,10.441C0.116,10.346 0.193,10.206 0.202,10.048C0.203,10.008 0.43,5.942 3.263,0.707C3.405,0.446 3.308,0.13 3.047,0.001C2.786,-0.129 2.462,-0.022 2.32,0.237C-0.64,5.704 -0.862,9.861 -0.87,10.034C-0.883,10.325 -0.655,10.564 -0.359,10.567C-0.223,10.57 -0.098,10.521 0,10.441" style="fill:rgb(228,137,73);fill-rule:nonzero;"/>
        </g>
        <g transform="matrix(1,0,0,1,400.077,398.299)">
            <path d="M0,3.987C0.133,3.879 0.213,3.714 0.201,3.536C0.181,3.246 -0.075,3.035 -0.371,3.064C-5.534,3.57 -9.471,0.312 -9.963,-0.261C-9.975,-0.302 -9.992,-0.341 -10.015,-0.378C-10.163,-0.623 -10.491,-0.697 -10.747,-0.544C-10.962,-0.417 -11.068,-0.129 -10.995,0.102C-10.752,0.871 -6.152,4.684 -0.298,4.111C-0.185,4.1 -0.082,4.055 0,3.987" style="fill:rgb(228,137,73);fill-rule:nonzero;"/>
        </g>
        <g transform="matrix(1,0,0,1,405.028,396.327)">
            <path d="M0,-1.191C0.163,-1.324 0.22,-1.552 0.125,-1.74C0.015,-1.96 -0.258,-2.043 -0.486,-1.929C-0.546,-1.898 -4.219,-0.111 -9.819,-1.482C-10.062,-1.542 -10.314,-1.395 -10.383,-1.154C-10.451,-0.913 -10.31,-0.671 -10.068,-0.611C-4.092,0.852 -0.247,-1.053 -0.086,-1.135C-0.055,-1.151 -0.027,-1.17 0,-1.191" style="fill:rgb(228,137,73);fill-rule:nonzero;"/>
        </g>
        <g transform="matrix(1,0,0,1,357.993,363.458)">
            <path d="M0,6.28C0,6.28 -1.877,4.113 0.267,0.61C1.988,-1.595 3.119,0.084 2.65,1.247C2.65,1.247 4.941,-3.277 7.229,-2.714C8.944,-1.761 6.972,0.049 6.972,0.049C6.972,0.049 10.293,-2.282 11.563,-0.197C12.833,1.889 6.761,4.428 6.761,4.428C6.761,4.428 8.197,3.927 8.402,5.472C8.608,7.017 2.535,9.557 0,6.28" style="fill:rgb(255,169,99);fill-rule:nonzero;"/>
        </g>
        <g transform="matrix(1,0,0,1,356.832,363.985)">
            <path d="M0,7.259C-0.011,7.25 -0.022,7.24 -0.032,7.228C-0.12,7.129 -0.113,6.981 -0.014,6.897C0.045,6.847 3.762,3.127 10.676,-0.018C10.795,-0.072 10.939,-0.02 10.997,0.098C11.056,0.217 11.008,0.356 10.889,0.41C4.036,3.527 0.365,7.207 0.307,7.257C0.219,7.331 0.09,7.33 0,7.259" style="fill:rgb(228,137,73);fill-rule:nonzero;"/>
        </g>
        <g transform="matrix(1,0,0,1,361.855,361.91)">
            <path d="M0,5.136C-0.042,5.103 -0.074,5.056 -0.086,5.001C-0.103,4.929 -0.466,3.218 2.024,0.055C2.103,-0.046 2.254,-0.062 2.359,0.019C2.36,0.02 2.361,0.021 2.361,0.021C2.465,0.103 2.486,0.25 2.407,0.35C0.076,3.312 0.378,4.897 0.381,4.912C0.408,5.04 0.327,5.162 0.199,5.185C0.126,5.198 0.054,5.178 0,5.136" style="fill:rgb(228,137,73);fill-rule:nonzero;"/>
        </g>
        <g transform="matrix(1,0,0,1,359.236,369.952)">
            <path d="M0,-0.668C-0.028,-0.69 -0.044,-0.704 -0.049,-0.709C-0.146,-0.801 -0.151,-0.95 -0.062,-1.042C0.027,-1.133 0.176,-1.133 0.276,-1.045C0.292,-1.027 1.523,0.022 4.838,-1.03C4.963,-1.07 5.1,-1.002 5.145,-0.878C5.189,-0.754 5.124,-0.622 4.999,-0.582C1.7,0.465 0.276,-0.451 0,-0.668" style="fill:rgb(228,137,73);fill-rule:nonzero;"/>
        </g>
        <g transform="matrix(1,0,0,1,359.767,363.852)">
            <path d="M0,4.685C-0.006,4.68 -0.012,4.675 -0.018,4.669C-0.088,4.603 -1.727,2.997 -0.637,0.103C-0.592,-0.018 -0.454,-0.076 -0.33,-0.027C-0.206,0.021 -0.141,0.158 -0.187,0.279C-1.169,2.888 0.295,4.323 0.31,4.337C0.406,4.429 0.411,4.578 0.321,4.67C0.236,4.756 0.097,4.761 0,4.685" style="fill:rgb(228,137,73);fill-rule:nonzero;"/>
        </g>
        <g transform="matrix(1,0,0,1,432.347,346.772)">
            <path d="M0,4.788C0,4.788 -0.637,8.185 -5.552,8.788C-8.924,8.818 -8.187,6.491 -6.737,6.062C-6.737,6.062 -12.725,7.292 -13.91,4.711C-14.297,2.378 -11.11,2.881 -11.11,2.881C-11.11,2.881 -15.8,1.495 -14.785,-1.268C-13.769,-4.03 -6.818,-0.204 -6.818,-0.204C-6.818,-0.204 -8.368,-1.184 -7.064,-2.537C-5.76,-3.889 1.192,-0.062 0,4.788" style="fill:rgb(255,169,99);fill-rule:nonzero;"/>
        </g>
        <g transform="matrix(1,0,0,1,434.639,346.629)">
            <path d="M0,4.897C-0.001,4.914 -0.002,4.932 -0.005,4.95C-0.033,5.108 -0.178,5.212 -0.331,5.182C-0.423,5.164 -6.722,4.445 -14.875,0.279C-15.015,0.207 -15.074,0.032 -15.006,-0.112C-14.939,-0.256 -14.77,-0.315 -14.631,-0.244C-6.549,3.887 -0.323,4.592 -0.232,4.609C-0.096,4.636 -0.001,4.759 0,4.897" style="fill:rgb(228,137,73);fill-rule:nonzero;"/>
        </g>
        <g transform="matrix(1,0,0,1,426.909,351.507)">
            <path d="M0,-1.573C0,-1.509 -0.02,-1.443 -0.063,-1.39C-0.118,-1.321 -1.461,0.305 -6.313,0.327C-6.468,0.328 -6.596,0.198 -6.599,0.038C-6.598,0.037 -6.599,0.035 -6.598,0.034C-6.599,-0.125 -6.476,-0.255 -6.322,-0.256C-1.778,-0.277 -0.509,-1.75 -0.497,-1.765C-0.397,-1.886 -0.22,-1.901 -0.102,-1.797C-0.035,-1.739 -0.001,-1.656 0,-1.573" style="fill:rgb(228,137,73);fill-rule:nonzero;"/>
        </g>
        <g transform="matrix(1,0,0,1,430.986,346.212)">
            <path d="M0,4.516C0.001,4.559 -0.002,4.584 -0.002,4.593C-0.016,4.754 -0.153,4.871 -0.307,4.855C-0.46,4.839 -0.571,4.699 -0.563,4.539C-0.558,4.51 -0.491,2.561 -3.97,0.221C-4.101,0.133 -4.14,-0.047 -4.056,-0.182C-3.973,-0.317 -3.799,-0.355 -3.668,-0.267C-0.206,2.062 -0.002,4.093 0,4.516" style="fill:rgb(228,137,73);fill-rule:nonzero;"/>
        </g>
        <g transform="matrix(1,0,0,1,429.883,354.564)">
            <path d="M0,-3.778C0,-3.768 -0.001,-3.759 -0.001,-3.749C-0.012,-3.633 -0.297,-0.882 -3.847,0.26C-3.995,0.308 -4.153,0.221 -4.2,0.067C-4.247,-0.086 -4.166,-0.25 -4.019,-0.297C-0.819,-1.327 -0.563,-3.784 -0.561,-3.81C-0.546,-3.97 -0.409,-4.086 -0.255,-4.069C-0.11,-4.054 -0.001,-3.926 0,-3.778" style="fill:rgb(228,137,73);fill-rule:nonzero;"/>
        </g>
        <g transform="matrix(1,0,0,1,329.601,418.441)">
            <path d="M0,-10.104C0,-10.104 1.437,-15.519 9.455,-15.906C14.909,-15.55 13.439,-11.876 11.045,-11.356C11.045,-11.356 20.872,-12.627 22.478,-8.313C22.824,-4.494 17.732,-5.69 17.732,-5.69C17.732,-5.69 25.15,-2.887 23.177,1.458C21.203,5.802 10.424,-1.217 10.424,-1.217C10.424,-1.217 12.813,0.553 10.542,2.584C8.273,4.614 -2.508,-2.406 0,-10.104" style="fill:rgb(255,169,99);fill-rule:nonzero;"/>
        </g>
        <g transform="matrix(1,0,0,1,325.892,417.825)">
            <path d="M0,-9.709C0.003,-9.737 0.007,-9.766 0.014,-9.795C0.078,-10.047 0.325,-10.197 0.569,-10.131C0.715,-10.091 10.813,-8.173 23.494,-0.46C23.711,-0.328 23.786,-0.038 23.659,0.186C23.533,0.412 23.254,0.488 23.037,0.356C10.466,-7.291 0.486,-9.177 0.34,-9.216C0.124,-9.275 -0.015,-9.486 0,-9.709" style="fill:rgb(228,137,73);fill-rule:nonzero;"/>
        </g>
        <g transform="matrix(1,0,0,1,338.197,409.311)">
            <path d="M0,2.305C0.007,2.201 0.048,2.098 0.124,2.017C0.221,1.911 2.587,-0.556 10.434,-0.011C10.685,0.007 10.876,0.232 10.861,0.492C10.86,0.493 10.861,0.496 10.86,0.497C10.842,0.755 10.628,0.95 10.378,0.933C3.03,0.422 0.802,2.652 0.78,2.675C0.604,2.858 0.317,2.861 0.139,2.68C0.037,2.577 -0.009,2.439 0,2.305" style="fill:rgb(228,137,73);fill-rule:nonzero;"/>
        </g>
        <g transform="matrix(1,0,0,1,331.701,417.62)">
            <path d="M0,-7.775C0.004,-7.844 0.011,-7.885 0.013,-7.9C0.054,-8.157 0.289,-8.33 0.537,-8.286C0.782,-8.242 0.946,-8.002 0.912,-7.745C0.901,-7.699 0.56,-4.556 5.903,-0.356C6.105,-0.198 6.146,0.098 5.994,0.307C5.844,0.515 5.559,0.555 5.357,0.397C0.038,-3.783 -0.047,-7.091 0,-7.775" style="fill:rgb(228,137,73);fill-rule:nonzero;"/>
        </g>
        <g transform="matrix(1,0,0,1,333.491,404.303)">
            <path d="M0,5.579C0.001,5.564 0.003,5.549 0.005,5.533C0.036,5.346 0.828,0.933 6.703,-0.488C6.948,-0.547 7.193,-0.388 7.251,-0.134C7.308,0.119 7.159,0.375 6.914,0.434C1.618,1.714 0.909,5.657 0.903,5.698C0.86,5.954 0.625,6.126 0.378,6.08C0.144,6.038 -0.016,5.819 0,5.579" style="fill:rgb(228,137,73);fill-rule:nonzero;"/>
        </g>
        <g transform="matrix(1,0,0,1,381.581,327.61)">
            <path d="M0,16.585C0,16.585 -2.941,21.354 -10.728,19.408C-15.847,17.492 -13.378,14.399 -10.936,14.593C-10.936,14.593 -20.711,12.971 -21.003,8.376C-20.23,4.62 -15.701,7.236 -15.701,7.236C-15.701,7.236 -21.992,2.41 -18.849,-1.18C-15.704,-4.769 -7.412,5.065 -7.412,5.065C-7.412,5.065 -9.188,2.681 -6.427,1.392C-3.668,0.104 4.625,9.94 0,16.585" style="fill:rgb(255,169,99);fill-rule:nonzero;"/>
        </g>
        <g transform="matrix(1,0,0,1,385.068,329.364)">
            <path d="M0,16.114C-0.011,16.14 -0.023,16.166 -0.038,16.192C-0.172,16.415 -0.452,16.488 -0.667,16.353C-0.795,16.273 -9.908,11.52 -19.82,0.473C-19.99,0.283 -19.978,-0.016 -19.792,-0.194C-19.606,-0.374 -19.317,-0.366 -19.147,-0.176C-9.321,10.776 -0.311,15.464 -0.183,15.544C0.006,15.663 0.079,15.905 0,16.114" style="fill:rgb(228,137,73);fill-rule:nonzero;"/>
        </g>
        <g transform="matrix(1,0,0,1,374.298,338.791)">
            <path d="M0,-0.219C-0.037,-0.121 -0.106,-0.034 -0.202,0.021C-0.325,0.094 -3.303,1.773 -10.658,-1.016C-10.893,-1.105 -11.011,-1.376 -10.921,-1.621C-10.921,-1.622 -10.92,-1.625 -10.919,-1.626C-10.827,-1.867 -10.566,-1.992 -10.332,-1.903C-3.444,0.708 -0.667,-0.783 -0.64,-0.798C-0.419,-0.923 -0.143,-0.843 -0.024,-0.618C0.043,-0.49 0.048,-0.345 0,-0.219" style="fill:rgb(228,137,73);fill-rule:nonzero;"/>
        </g>
        <g transform="matrix(1,0,0,1,380.005,332.967)">
            <path d="M0,9.177C-0.024,9.242 -0.042,9.28 -0.048,9.293C-0.162,9.527 -0.437,9.625 -0.661,9.511C-0.884,9.398 -0.971,9.122 -0.865,8.885C-0.841,8.844 0.394,5.933 -3.508,0.369C-3.656,0.159 -3.609,-0.136 -3.404,-0.292C-3.199,-0.448 -2.915,-0.404 -2.767,-0.194C1.117,5.344 0.243,8.536 0,9.177" style="fill:rgb(228,137,73);fill-rule:nonzero;"/>
        </g>
        <g transform="matrix(1,0,0,1,378.302,345.096)">
            <path d="M0,-3.505C-0.005,-3.491 -0.012,-3.477 -0.018,-3.462C-0.102,-3.293 -2.135,0.704 -8.169,0.367C-8.421,0.353 -8.61,0.13 -8.592,-0.13C-8.574,-0.389 -8.357,-0.59 -8.105,-0.577C-2.666,-0.273 -0.848,-3.842 -0.83,-3.88C-0.715,-4.113 -0.44,-4.209 -0.217,-4.094C-0.006,-3.986 0.085,-3.73 0,-3.505" style="fill:rgb(228,137,73);fill-rule:nonzero;"/>
        </g>
    </g>
</svg>
