<?xml version="1.0" encoding="UTF-8" standalone="no"?>
<!DOCTYPE svg PUBLIC "-//W3C//DTD SVG 1.1//EN" "http://www.w3.org/Graphics/SVG/1.1/DTD/svg11.dtd">
<svg width="100%" height="100%" viewBox="0 0 500 500" version="1.1" xmlns="http://www.w3.org/2000/svg" xmlnsXlink="http://www.w3.org/1999/xlink" xmlSpace="preserve" xmlnsSerif="http://www.serif.com/" style="fill-rule:evenodd;clip-rule:evenodd;stroke-linejoin:round;stroke-miterlimit:2;">
    <g transform="matrix(1,0,0,1,-0.0960457,0.646315)">
        <rect id="moon_new" x="0.096" y="-0.646" width="500" height="500" style="fill:none;"/>
        <g id="moon_new1" serifId="moon_new">
            <g id="moon_new.afdesign" transform="matrix(1,0,0,1,250.192,249.707)">
                <g transform="matrix(1,0,0,1,-250,-250)">
                    <g id="new">
                        <g>
                            <g transform="matrix(0.998735,4.92795,4.93831,-0.99664,196.458,106.684)">
                                <path d="M30.06,-24.59C46.096,-24.702 59.097,-11.062 59.097,5.877C59.097,22.814 46.097,36.636 30.06,36.748C14.024,36.859 1.024,23.22 1.023,6.282C1.024,-10.657 14.023,-24.478 30.06,-24.59" style="fill:rgb(91,83,97);fill-rule:nonzero;"/>
                            </g>
                            <g transform="matrix(5.06474,0,0,5.05411,-175.14,-750.993)">
                                <g>
                                    <g transform="matrix(1,0,0,1,111.21,227.805)">
                                        <path d="M0,-40.88C0,-40.88 5.7,-28.258 -2.479,-15.799C-10.659,-3.34 -28.09,0.392 -42.561,-7.901C-41.924,-11.459 -38.151,-14.302 -34.601,-14.219C-31.816,-14.154 -28.568,-12.669 -26.541,-14.616C-25.18,-15.924 -25.226,-18.121 -24.421,-19.842C-23.067,-22.737 -19.625,-23.805 -16.561,-24.542C-13.497,-25.279 -10.055,-26.268 -8.6,-29.111C-7.823,-30.63 -7.777,-32.413 -7.74,-34.124C-7.704,-35.836 -7.64,-37.622 -6.835,-39.126C-6.029,-40.629 -1.675,-41.272 -0.091,-40.697L0,-40.88Z" style="fill:rgb(75,66,81);fill-rule:nonzero;"/>
                                    </g>
                                    <g transform="matrix(0.0271443,0.134217,0.141404,-0.0285978,92.9124,191.592)">
                                        <path d="M30.06,-24.59C46.096,-24.702 59.097,-11.062 59.097,5.877C59.097,22.814 46.097,36.636 30.06,36.748C14.024,36.859 1.024,23.22 1.023,6.282C1.024,-10.657 14.023,-24.478 30.06,-24.59" style="fill:rgb(75,66,81);fill-rule:nonzero;"/>
                                    </g>
                                    <g transform="matrix(0.0144859,0.0716266,0.0763251,-0.0154361,65.3726,208.216)">
                                        <path d="M30.06,-24.59C46.096,-24.702 59.097,-11.062 59.097,5.877C59.097,22.814 46.097,36.636 30.06,36.748C14.024,36.859 1.024,23.22 1.023,6.282C1.024,-10.657 14.023,-24.478 30.06,-24.59" style="fill:rgb(75,66,81);fill-rule:nonzero;"/>
                                    </g>
                                    <g transform="matrix(0.0387726,0.191714,0.211179,-0.0427092,85.8241,204.949)">
                                        <path d="M30.06,-24.59C46.096,-24.702 59.097,-11.062 59.097,5.877C59.097,22.814 46.097,36.636 30.06,36.748C14.024,36.859 1.024,23.22 1.023,6.282C1.024,-10.657 14.023,-24.478 30.06,-24.59" style="fill:rgb(75,66,81);fill-rule:nonzero;stroke:rgb(91,82,98);stroke-width:7.86px;"/>
                                    </g>
                                </g>
                            </g>
                        </g>
                    </g>
                    <g transform="matrix(-2.905,-4.1401,-4.1488,2.89891,129.583,150.156)">
                        <path d="M-5.554,-13.367C-5.228,-6.476 -7.539,-0.804 -7.904,1.132C-8.252,2.976 -6.157,2.817 -5.554,1.691C-3.377,-2.375 -3.154,-10.722 -4.451,-13.542C-4.695,-14.072 -5.469,-13.914 -5.554,-13.367" style="fill:white;fill-rule:nonzero;"/>
                    </g>
                </g>
            </g>
        </g>
    </g>
</svg>
